<svg width="48" height="48" viewBox="0 0 48 48" fill="none" xmlns="http://www.w3.org/2000/svg">
<path d="M21.9 30.4075L32.5076 19.7999L30.3692 17.6615L21.9 26.1307L17.6615 21.8923L15.5231 24.0306L21.9 30.4075ZM24 42.9613C19.6743 41.7819 16.0929 39.2357 13.2558 35.3229C10.4186 31.4101 9 27.0358 9 22.1999V10.6923L24 5.0769L38.9999 10.6923V22.1999C38.9999 27.0358 37.5813 31.4101 34.7442 35.3229C31.907 39.2357 28.3256 41.7819 24 42.9613ZM24 39.7999C27.4666 38.6999 30.3333 36.4999 32.6 33.1999C34.8666 29.8999 36 26.2332 36 22.1999V12.7499L24 8.26916L12 12.7499V22.1999C12 26.2332 13.1333 29.8999 15.4 33.1999C17.6666 36.4999 20.5333 38.6999 24 39.7999Z" fill="url(#paint0_linear_13121_2522)"/>
<defs>
<linearGradient id="paint0_linear_13121_2522" x1="29.3076" y1="69.236" x2="57.7704" y2="52.4967" gradientUnits="userSpaceOnUse">
<stop stop-color="#0260FF"/>
<stop offset="0.531503" stop-color="#40A2FF"/>
<stop offset="1" stop-color="#A8BEFF"/>
</linearGradient>
</defs>
</svg>